<svg id="Layer_1" data-name="Layer 1" xmlns="http://www.w3.org/2000/svg" viewBox="0 0 256 256"><defs><style>.cls-1{fill:#f4f1f0;}.cls-2{fill:#675f58;}.cls-3{fill:#ff931e;}</style></defs><title>Artboard 1</title><rect class="cls-1" width="256" height="256"/><path class="cls-2" d="M46.57,96.18H209.43a0,0,0,0,1,0,0V186a15.66,15.66,0,0,1-15.66,15.66H62.23A15.66,15.66,0,0,1,46.57,186V96.18A0,0,0,0,1,46.57,96.18Z"/><path class="cls-3" d="M59.7,67.26H196.3a13.13,13.13,0,0,1,13.13,13.13V93.51a0,0,0,0,1,0,0H46.57a0,0,0,0,1,0,0V80.38A13.13,13.13,0,0,1,59.7,67.26Z"/><rect class="cls-1" x="61.73" y="71.44" width="12.68" height="9.89"/><rect class="cls-1" x="85.7" y="71.44" width="12.68" height="9.89"/><rect class="cls-1" x="109.67" y="71.44" width="12.68" height="9.89"/><rect class="cls-1" x="133.64" y="71.44" width="12.68" height="9.89"/><rect class="cls-1" x="157.62" y="71.44" width="12.68" height="9.89"/><rect class="cls-1" x="181.59" y="71.44" width="12.68" height="9.89"/><rect class="cls-3" x="63.72" y="62.5" width="8.69" height="13.89" rx="2.69" ry="2.69"/><rect class="cls-3" x="87.7" y="62.5" width="8.69" height="13.89" rx="2.69" ry="2.69"/><rect class="cls-3" x="111.67" y="62.5" width="8.69" height="13.89" rx="2.69" ry="2.69"/><rect class="cls-3" x="135.64" y="62.5" width="8.69" height="13.89" rx="2.69" ry="2.69"/><rect class="cls-3" x="159.62" y="62.5" width="8.69" height="13.89" rx="2.69" ry="2.69"/><rect class="cls-3" x="183.59" y="62.5" width="8.69" height="13.89" rx="2.69" ry="2.69"/><rect class="cls-1" x="105.76" y="110.24" width="17.73" height="17.73" rx="1.52" ry="1.52"/><rect class="cls-1" x="134.68" y="110.24" width="17.73" height="17.73" rx="1.52" ry="1.52"/><rect class="cls-1" x="163.59" y="110.24" width="17.73" height="17.73" rx="1.52" ry="1.52"/><rect class="cls-1" x="76.84" y="139.16" width="17.73" height="17.73" rx="1.52" ry="1.52"/><rect class="cls-1" x="105.76" y="139.16" width="17.73" height="17.73" rx="1.52" ry="1.52"/><rect class="cls-1" x="134.68" y="139.16" width="17.73" height="17.73" rx="1.52" ry="1.52"/><rect class="cls-1" x="163.59" y="139.16" width="17.73" height="17.73" rx="1.52" ry="1.52"/><rect class="cls-1" x="76.84" y="168.08" width="17.73" height="17.73" rx="1.52" ry="1.52"/><rect class="cls-1" x="105.76" y="168.08" width="17.73" height="17.73" rx="1.52" ry="1.52"/><rect class="cls-1" x="134.68" y="168.08" width="17.73" height="17.73" rx="1.52" ry="1.52"/></svg>
